Coordinates
version=1
nRows=15
nColumns=63
inDegrees=yes

Units are S.I. units (second, meters, Newtons, ...)
If the header above contains a line with 'inDegrees', this indicates whether rotational values are in degrees (yes) or radians (no).

endheader
time	pelvis_tilt	pelvis_list	pelvis_rotation	pelvis_tx	pelvis_ty	pelvis_tz	hip_flexion_r	hip_adduction_r	hip_rotation_r	knee_angle_r	knee_angle_r_beta	ankle_angle_r	subtalar_angle_r	mtp_angle_r	hip_flexion_l	hip_adduction_l	hip_rotation_l	knee_angle_l	knee_angle_l_beta	ankle_angle_l	subtalar_angle_l	mtp_angle_l	L5_S1_Flex_Ext	L5_S1_Lat_Bending	L5_S1_axial_rotation	L4_L5_Flex_Ext	L4_L5_Lat_Bending	L4_L5_axial_rotation	L3_L4_Flex_Ext	L3_L4_Lat_Bending	L3_L4_axial_rotation	L2_L3_Flex_Ext	L2_L3_Lat_Bending	L2_L3_axial_rotation	L1_L2_Flex_Ext	L1_L2_Lat_Bending	L1_L2_axial_rotation	L1_T12_Flex_Ext	L1_T12_Lat_Bending	L1_T12_axial_rotation	Abs_r3	Abs_r2	Abs_r1	Abs_t1	Abs_t2	neck_flexion	neck_bending	neck_rotation	arm_flex_r	arm_add_r	arm_rot_r	elbow_flex_r	pro_sup_r	wrist_flex_r	wrist_dev_r	arm_flex_l	arm_add_l	arm_rot_l	elbow_flex_l	pro_sup_l	wrist_flex_l	wrist_dev_l
0.000000	3.459706	-5.307403	86.144838	0.283614	0.852931	0.597060	6.544137	3.154316	4.026197	11.438500	0.199639	30.563304	2.634186	0.000000	1.497709	-4.502081	-2.338026	1.859114	0.032448	28.432435	-1.629186	0.000000	0.095309	0.356204	1.806764	0.176999	0.473751	1.919687	0.156584	0.866074	1.919687	0.108929	0.866074	1.580919	0.088504	0.726371	1.467996	0.054460	0.551760	1.355073	0.680786	4.029451	10.048681	0.000000	0.000000	28.187949	-4.066428	-0.032353	13.622985	-21.065186	40.050618	96.484889	87.917218	5.826665	3.526687	18.845522	-34.463747	53.739128	96.561034	63.917431	2.219210	-16.539939
0.016949	3.865387	-5.541667	86.896788	0.281940	0.852970	0.596383	6.587710	3.623138	5.376228	11.104107	0.193803	29.443604	0.198210	0.000000	1.808639	-4.768014	-0.685530	1.951059	0.034052	28.040388	-3.195196	0.000000	0.100326	0.419060	1.522107	0.186316	0.557350	1.617239	0.164826	1.018902	1.617239	0.114663	1.018902	1.331844	0.093163	0.854547	1.236712	0.057326	0.649124	1.141581	0.716620	4.740490	8.465505	0.000000	0.000000	27.859870	-4.020953	1.115620	14.573434	-21.870711	42.571003	97.015753	80.914100	6.291984	6.166095	16.838373	-34.425378	52.229245	97.008516	66.046231	3.275654	-16.442419
0.033898	4.168702	-5.770623	87.415834	0.280620	0.852955	0.596036	6.710000	3.986955	6.515892	10.884619	0.189972	28.552662	-1.749908	0.000000	2.107506	-4.961542	0.522066	2.028638	0.035406	27.740952	-4.409716	0.000000	0.102487	0.467084	1.298855	0.190328	0.621222	1.380034	0.168375	1.135668	1.380034	0.117132	1.135668	1.136498	0.095169	0.952477	1.055320	0.058561	0.723513	0.974142	0.732051	5.283746	7.223844	0.000000	0.000000	27.564605	-4.052759	2.003557	15.425578	-22.641514	44.852930	97.549893	75.072343	6.487278	8.357774	15.330971	-34.443263	51.318671	97.389273	67.934490	4.605861	-16.093895
0.050847	4.378297	-5.994335	87.722704	0.279627	0.852887	0.595988	6.903253	4.255000	7.461664	10.769577	0.187965	27.870800	-3.250158	0.000000	2.394962	-5.089149	1.323350	2.094117	0.036549	27.524789	-5.303268	0.000000	0.102220	0.501556	1.131606	0.189833	0.667070	1.202331	0.167937	1.219484	1.202331	0.116827	1.219484	0.990155	0.094921	1.022773	0.919430	0.058409	0.776911	0.848704	0.730147	5.673704	6.293653	0.000000	0.000000	27.301857	-4.150586	2.658133	16.182648	-23.372770	46.902350	98.082085	70.302241	6.448530	10.141945	14.270921	-34.511526	50.934825	97.711326	69.597648	6.153317	-15.531136
0.067797	4.502816	-6.212861	87.838127	0.278932	0.852771	0.596207	7.159714	4.436507	8.230017	10.748524	0.187597	27.378336	-4.342532	0.000000	2.671658	-5.157320	1.756909	2.149762	0.037520	27.382560	-5.906377	0.000000	0.099956	0.523757	1.014957	0.185627	0.696597	1.078392	0.164217	1.273464	1.078392	0.114239	1.273464	0.888087	0.092819	1.068046	0.824653	0.057115	0.811300	0.761218	0.713973	5.924849	5.644886	0.000000	0.000000	27.071331	-4.303174	3.106023	16.847879	-24.059652	48.725212	98.607107	66.514088	6.211722	11.558829	13.605828	-34.624291	51.005124	97.982695	71.051142	7.861507	-14.790909
0.084746	4.550904	-6.426262	87.782830	0.278506	0.852611	0.596662	7.471629	4.540709	8.837424	10.811002	0.188688	27.055593	-5.067023	0.000000	2.938246	-5.172537	1.861329	2.197840	0.038360	27.304927	-6.249565	0.000000	0.096122	0.534968	0.943506	0.178509	0.711508	1.002475	0.157920	1.300721	1.002475	0.109858	1.300721	0.825568	0.089259	1.090907	0.766599	0.054924	0.828666	0.707630	0.686593	6.051666	5.247497	0.000000	0.000000	26.872732	-4.499263	3.373905	17.424504	-24.697336	50.327466	99.119734	63.618178	5.812839	12.648647	13.283298	-34.775681	51.456987	98.211399	72.310414	9.673920	-13.909984
0.101695	4.531208	-6.634598	87.577542	0.278321	0.852410	0.597322	7.831243	4.576838	9.300361	10.946552	0.191053	26.882888	-5.463622	0.000000	3.195377	-5.141284	1.675196	2.240618	0.039106	27.282551	-6.363358	0.000000	0.091150	0.536469	0.911851	0.169274	0.713503	0.968842	0.149750	1.304370	0.968842	0.104175	1.304370	0.797870	0.084642	1.093967	0.740879	0.052083	0.830990	0.683888	0.651074	6.068640	5.071442	0.000000	0.000000	26.705763	-4.727594	3.488454	17.915756	-25.280995	51.715062	99.614746	61.524805	5.287864	13.451620	13.250937	-34.959822	52.217830	98.405459	73.390901	11.534040	-12.925130
0.118644	4.452371	-6.837931	87.242992	0.278347	0.852171	0.598156	8.230801	4.554128	9.635299	11.144716	0.194512	26.840544	-5.572320	0.000000	3.443704	-5.070046	1.237098	2.280361	0.039800	27.306093	-6.278277	0.000000	0.085467	0.529539	0.914590	0.158721	0.704287	0.971751	0.140414	1.287522	0.971751	0.097680	1.287522	0.800266	0.079365	1.079837	0.743104	0.048836	0.820257	0.685942	0.610481	5.990256	5.086672	0.000000	0.000000	26.570130	-4.976908	3.476346	18.324869	-25.805803	52.893949	100.086918	60.144262	4.672779	14.007971	13.456350	-35.170837	53.215073	98.572894	74.308044	13.385355	-11.873115
0.135593	4.323039	-7.036321	86.799907	0.278556	0.851898	0.599132	8.662550	4.481811	9.858714	11.395037	0.198881	26.908879	-5.433109	0.000000	3.683877	-4.965306	0.585621	2.319336	0.040480	27.366215	-6.024846	0.000000	0.079503	0.515461	0.946319	0.147645	0.685563	1.005464	0.130615	1.253292	1.005464	0.090864	1.253292	0.828029	0.073826	1.051128	0.768885	0.045428	0.798449	0.709740	0.567881	5.830998	5.263145	0.000000	0.000000	26.465535	-5.235944	3.364257	18.655077	-26.266936	53.870078	100.531028	59.386842	4.003569	14.357919	13.847142	-35.402851	54.376131	98.721724	75.077281	15.171351	-10.790709
0.152542	4.151858	-7.229828	86.269015	0.278919	0.851596	0.600220	9.118734	4.369121	9.987079	11.687056	0.203978	27.068214	-5.085981	0.000000	3.916548	-4.833547	-0.240649	2.359810	0.041186	27.453578	-5.633590	0.000000	0.073687	0.495514	1.001638	0.136844	0.659034	1.064241	0.121060	1.204793	1.064241	0.084217	1.204793	0.876434	0.068426	1.010452	0.813831	0.042105	0.767551	0.751229	0.526337	5.605353	5.570812	0.000000	0.000000	26.391685	-5.493442	3.178864	18.909612	-26.659568	54.649398	100.941853	59.162840	3.316216	14.541686	14.370920	-35.649987	55.628425	98.859970	75.714051	16.835513	-9.714680
0.169492	3.947472	-7.418512	85.671046	0.279409	0.851267	0.601387	9.591599	4.225290	10.036867	12.010316	0.209620	27.298868	-4.570928	0.000000	4.142370	-4.681254	-1.203124	2.404049	0.041959	27.558843	-5.135031	0.000000	0.068448	0.470979	1.075144	0.127115	0.626401	1.142341	0.112453	1.145137	1.142341	0.078229	1.145137	0.940751	0.063561	0.960419	0.873555	0.039111	0.729546	0.806358	0.488918	5.327804	5.979630	0.000000	0.000000	26.348282	-5.738143	2.946842	19.091709	-26.978872	55.237859	101.314171	59.382550	2.646704	14.599493	14.975289	-35.906370	56.899370	98.995650	76.233794	18.321329	-8.681797
0.186441	3.726578	-7.577718	85.037922	0.280018	0.850909	0.602605	10.035234	4.072382	10.067841	12.346269	0.215483	27.532914	-4.000324	0.000000	4.331501	-4.519408	-2.141691	2.464952	0.043022	27.568916	-4.717473	0.000000	0.063027	0.443950	1.172482	0.117047	0.590454	1.245762	0.103546	1.079421	1.245762	0.072033	1.079421	1.025922	0.058526	0.905303	0.952641	0.036013	0.687679	0.879361	0.450193	5.022054	6.520992	0.000000	0.000000	26.313558	-5.926822	2.675798	19.153185	-27.247864	55.589104	101.661656	59.786047	2.137988	14.705787	15.730276	-36.174828	58.265339	99.088543	76.707189	19.770736	-7.791386
0.203390	3.489277	-7.747218	84.392289	0.280685	0.850537	0.603752	10.478942	3.914654	10.128737	12.670361	0.221140	27.763944	-3.434782	0.000000	4.527290	-4.352507	-3.157486	2.528295	0.044127	27.602384	-4.221001	0.000000	0.062118	0.415447	1.261039	0.115359	0.552545	1.339854	0.102054	1.010118	1.339854	0.070995	1.010118	1.103409	0.057683	0.847180	1.024594	0.035494	0.643527	0.945779	0.443703	4.699620	7.013520	0.000000	0.000000	26.343180	-6.072423	2.495137	19.160656	-27.360509	55.744938	101.908686	60.590907	1.788356	14.727147	16.262777	-36.444463	59.216275	99.262044	77.133230	20.520184	-7.076123
0.220339	3.242450	-7.925412	83.749914	0.281373	0.850145	0.604845	10.926224	3.748584	10.134062	12.991252	0.226740	28.008983	-2.776973	0.000000	4.736051	-4.184929	-4.239300	2.603645	0.045442	27.669668	-3.640359	0.000000	0.065344	0.386596	1.338458	0.121350	0.514173	1.422112	0.107353	0.939969	1.422112	0.074681	0.939969	1.171151	0.060678	0.788347	1.087497	0.037337	0.598837	1.003844	0.466744	4.373251	7.444102	0.000000	0.000000	26.430539	-6.156475	2.425638	19.136648	-27.336489	55.740778	102.061921	61.569695	1.614310	14.747621	16.585922	-36.696602	59.789043	99.502676	77.461713	20.589136	-6.590371
0.237288	2.996654	-8.111893	83.127451	0.282048	0.849729	0.605870	11.378546	3.581538	10.083152	13.315276	0.232395	28.265600	-2.052020	0.000000	4.958985	-4.025015	-5.328475	2.697850	0.047086	27.761734	-3.031877	0.000000	0.072816	0.358523	1.404821	0.135227	0.476835	1.492622	0.119630	0.871712	1.492622	0.083222	0.871712	1.229218	0.067617	0.731099	1.141417	0.041607	0.555351	1.053615	0.520119	4.055679	7.813191	0.000000	0.000000	26.560811	-6.177442	2.434058	19.061910	-27.201811	55.584129	102.150320	62.517168	1.571637	14.822385	16.652718	-36.909147	59.926010	99.790686	77.713315	20.178986	-6.309168
